<svg width="76" height="80" viewBox="0 0 76 80" fill="none" xmlns="http://www.w3.org/2000/svg">
<path d="M75.4844 26.0313C75.9844 27.3906 75.5625 28.9062 74.4844 29.875L67.7188 36.0313C67.8906 37.3281 67.9844 38.6562 67.9844 40C67.9844 41.3438 67.8906 42.6719 67.7188 43.9687L74.4844 50.125C75.5625 51.0937 75.9844 52.6094 75.4844 53.9687C74.7969 55.8281 73.9688 57.6094 73.0156 59.3281L72.2813 60.5937C71.25 62.3125 70.0938 63.9375 68.8281 65.4688C67.9062 66.5937 66.375 66.9687 65 66.5312L56.2969 63.7656C54.2031 65.375 51.8906 66.7188 49.4219 67.7344L47.4688 76.6563C47.1563 78.0781 46.0625 79.2031 44.625 79.4375C42.4688 79.7969 40.25 79.9844 37.9844 79.9844C35.7187 79.9844 33.5 79.7969 31.3437 79.4375C29.9062 79.2031 28.8125 78.0781 28.5 76.6563L26.5469 67.7344C24.0781 66.7188 21.7656 65.375 19.6719 63.7656L10.9844 66.5469C9.60937 66.9844 8.07812 66.5938 7.15625 65.4844C5.89062 63.9531 4.73438 62.3281 3.70313 60.6094L2.96875 59.3437C2.01563 57.625 1.1875 55.8437 0.5 53.9844C1.11759e-07 52.625 0.421875 51.1094 1.5 50.1406L8.26562 43.9844C8.09375 42.6719 8 41.3438 8 40C8 38.6562 8.09375 37.3281 8.26562 36.0313L1.5 29.875C0.421875 28.9062 1.11759e-07 27.3906 0.5 26.0313C1.1875 24.1719 2.01563 22.3906 2.96875 20.6719L3.70313 19.4062C4.73438 17.6875 5.89062 16.0625 7.15625 14.5312C8.07812 13.4063 9.60937 13.0312 10.9844 13.4687L19.6875 16.2344C21.7812 14.625 24.0937 13.2812 26.5625 12.2656L28.5156 3.34375C28.8281 1.92187 29.9219 0.796875 31.3594 0.5625C33.5156 0.1875 35.7344 0 38 0C40.2656 0 42.4844 0.1875 44.6406 0.546875C46.0781 0.78125 47.1719 1.90625 47.4844 3.32812L49.4375 12.25C51.9063 13.2656 54.2188 14.6094 56.3125 16.2188L65.0156 13.4531C66.3906 13.0156 67.9219 13.4063 68.8438 14.5156C70.1094 16.0469 71.2656 17.6719 72.2969 19.3906L73.0313 20.6562C73.9844 22.375 74.8125 24.1563 75.5 26.0156L75.4844 26.0313ZM38 52.5C41.3152 52.5 44.4946 51.183 46.8388 48.8388C49.183 46.4946 50.5 43.3152 50.5 40C50.5 36.6848 49.183 33.5054 46.8388 31.1612C44.4946 28.817 41.3152 27.5 38 27.5C34.6848 27.5 31.5054 28.817 29.1612 31.1612C26.817 33.5054 25.5 36.6848 25.5 40C25.5 43.3152 26.817 46.4946 29.1612 48.8388C31.5054 51.183 34.6848 52.5 38 52.5Z" fill="black"/>
</svg>
